<?xml version="1.0" encoding="UTF-8" standalone="no"?>
<svg width="39px" height="59px" viewBox="0 0 39 59" version="1.1" xmlns="http://www.w3.org/2000/svg" xmlns:xlink="http://www.w3.org/1999/xlink" xmlns:sketch="http://www.bohemiancoding.com/sketch/ns">
    <!-- Generator: Sketch 3.1.1 (8761) - http://www.bohemiancoding.com/sketch -->
    <title>Group + Fill 3</title>
    <desc>Created with Sketch.</desc>
    <defs>
        <path id="path-1" d="M-0.151174256,0.0905778408 L34.5378903,35.1877488 L65.2361352,0.0905778408 L-0.151174256,0.0905778408 Z"></path>
    </defs>
    <g id="Page-2-Copy-Copy-Copy" stroke="none" stroke-width="1" fill="none" fill-rule="evenodd" sketch:type="MSPage">
        <g id="Servces.png" sketch:type="MSArtboardGroup" transform="translate(-627.000000, -2355.000000)">
            <g id="Group-+-Fill-3" sketch:type="MSLayerGroup" transform="translate(613.000000, 2348.000000)">
                <g id="Group" transform="translate(0.000000, -0.349124)">
                    <mask id="mask-2" sketch:name="Path 264" fill="white">
                        <use xlink:href="#path-1"></use>
                    </mask>
                    <use id="Path-264" sketch:type="MSShapeGroup" xlink:href="#path-1"></use>
                    <ellipse id="Oval-641" stroke="#902AC4" stroke-width="3" fill="#FFFFFF" sketch:type="MSShapeGroup" mask="url(#mask-2)" cx="32.9355469" cy="38.9372099" rx="30.0478516" ry="30.9372099"></ellipse>
                    <ellipse id="Oval-642" stroke="#902AC4" stroke-width="3" fill="#FFFFFF" sketch:type="MSShapeGroup" mask="url(#mask-2)" cx="32.9355469" cy="40.1134619" rx="24.4834346" ry="25.208097"></ellipse>
                    <ellipse id="Oval-643" stroke="#902AC4" stroke-width="3" fill="#FFFFFF" sketch:type="MSShapeGroup" mask="url(#mask-2)" cx="32.9355469" cy="40.4659658" rx="18.362576" ry="18.9060727"></ellipse>
                </g>
                <path d="M33.4915996,53.7469855 C30.5889111,53.7469855 28.2359067,51.3939812 28.2359067,48.4912159 C28.2359067,45.5886041 30.5889111,43.2352927 33.4915996,43.2352927 C36.3941347,43.2352927 38.7470623,45.5886041 38.7470623,48.4912159 C38.7470623,51.3939812 36.3941347,53.7469855 33.4915996,53.7469855 L33.4915996,53.7469855 Z M50,46.2702703 L49.1081081,46.2702703 L45.5405405,45.3783784 L44.6486486,42.7027027 L46.4324324,38.2432432 L43.7567568,35.5675676 L42.8648649,35.5675676 L39.2972973,37.3513514 L36.6216216,36.4594595 L35.7297297,32 L31.2702703,32 L31.2702703,32.8918919 L30.3783784,36.4594595 L27.7027027,37.3513514 L23.2432432,35.5675676 L20.5675676,38.2432432 L22.3513514,42.7027027 L21.4594595,45.3783784 L17,46.2702703 L17,50.7297297 L17.8918919,50.7297297 L21.4594595,51.6216216 L22.3513514,54.2972973 L20.5675676,58.7567568 L23.2432432,61.4324324 L24.1351351,61.4324324 L27.7027027,59.6486486 L30.3783784,60.5405405 L31.2702703,65 L35.7297297,65 L36.6216216,60.5405405 L39.2972973,59.6486486 L43.7567568,61.4324324 L46.4324324,58.7567568 L46.4324324,57.8648649 L44.6486486,54.2972973 L45.5405405,51.6216216 L50,50.7297297 L50,46.2702703 Z" id="Fill-3" stroke="#902AC4" stroke-width="2" fill="#FFFFFF" sketch:type="MSShapeGroup"></path>
            </g>
        </g>
    </g>
</svg>