<?xml version="1.0" encoding="utf-8"?>
<!-- Generator: Adobe Illustrator 18.1.0, SVG Export Plug-In . SVG Version: 6.00 Build 0)  -->
<svg version="1.1" id="Layer_1" xmlns:sketch="http://www.bohemiancoding.com/sketch/ns"
	 xmlns="http://www.w3.org/2000/svg" xmlns:xlink="http://www.w3.org/1999/xlink" x="0px" y="0px" viewBox="-454 252 50 57"
	 enable-background="new -454 252 50 57" xml:space="preserve">
<title>purchase</title>
<desc>Created with Sketch.</desc>
<g id="Page-2-Copy-Copy-Copy" sketch:type="MSPage">
	<g id="Servces.png" transform="translate(-621.000000, -2521.000000)" sketch:type="MSArtboardGroup">
		<g id="purchase" transform="translate(621.000000, 2517.000000)" sketch:type="MSLayerGroup">
			<path id="card" sketch:type="MSShapeGroup" fill="#902AC4" d="M-453,310.6c0,1.4,1.1,2.4,2.4,2.4h23.3c1.4,0,2.3-1.1,2.3-2.4
				v-13.5c0-1.4-0.9-2.1-2.3-2.1h-23.3c-1.4,0-2.4,0.7-2.4,2.1V310.6z M-427.3,296c0.7,0,1.3,0.4,1.3,1.1v13.5
				c0,0.7-0.6,1.4-1.3,1.4h-23.3c-0.7,0-1.4-0.8-1.4-1.4v-13.5c0-0.7,0.8-1.1,1.4-1.1H-427.3L-427.3,296z M-452,299v2h26v-2H-452z"
				/>
			<path fill="#902AC4" d="M-446.6,295l1.2-1.2c0.1,0,5.3-5,7.7-7.3c0.2-0.2,0.2-0.2,0.2-0.3c0-0.2,0-0.3-0.1-0.5
				c0-0.1,0-0.2-0.1-0.3c-0.5-2.6,0.3-5.2,2.1-7.1c2.2-2.2,5.2-3,7.9-2.1c0.6,0.2,0.9,0.7,1.1,1.1c0.1,0.5,0,1-0.4,1.4
				c-1.1,1.1-3.3,3.1-3.8,3.5l0,2.1l2.1,0c0.5-0.5,2.3-2.5,3.3-3.5c0.4-0.4,0.7-0.7,1.3-0.7c0.6,0,1.2,0.6,1.4,1.2
				c1.1,2.3,0.2,6-1.9,8.1c-1.5,1.5-3.4,2.2-5.5,2.2c-0.6,0-1.1-0.1-1.7-0.2l-0.2,0c-0.2,0-0.4-0.1-0.5-0.1c-0.1,0-0.2,0.1-0.4,0.3
				c-1,1-2.7,3-2.7,3l-0.2,0.3H-446.6z M-430.1,277.2c-1.7,0-3.3,0.7-4.7,2.1c-1.5,1.5-2.2,3.7-1.7,5.9c0,0.1,0,0.2,0,0.2
				c0.1,0.2,0.1,0.5,0.1,0.8c0,0.6-0.3,0.9-0.5,1.1c-1.7,1.7-4.8,4.7-6.5,6.3l7.1,0c0.5-0.5,1.8-2,2.6-2.8c0.3-0.3,0.5-0.6,1-0.7
				c0.4-0.1,0.7,0,1.1,0.1l0.2,0c0.5,0.1,0.9,0.2,1.4,0.2c1.7,0,3.4-0.7,4.6-1.9c1.9-1.9,2.3-5,1.6-6.7c-0.1-0.2-0.2-0.3-0.2-0.4
				c-0.1,0-0.2,0.2-0.4,0.3c-1.2,1.2-3.4,3.6-3.4,3.6c-0.2,0.2-0.4,0.3-0.7,0.3l-2.8,0c-0.4,0-0.8-0.3-0.8-0.8l0-2.8
				c0-0.2,0.1-0.5,0.3-0.7c0,0,2.6-2.3,3.9-3.6c0.1-0.1,0.1-0.1,0.1-0.1c0,0,0-0.2-0.3-0.2C-428.8,277.3-429.4,277.2-430.1,277.2z"
				/>
		</g>
	</g>
</g>
</svg>
