<?xml version="1.0" encoding="UTF-8" standalone="no"?>
<svg width="57px" height="47px" viewBox="0 0 57 47" version="1.1" xmlns="http://www.w3.org/2000/svg" xmlns:xlink="http://www.w3.org/1999/xlink" xmlns:sketch="http://www.bohemiancoding.com/sketch/ns">
    <!-- Generator: Sketch 3.1.1 (8761) - http://www.bohemiancoding.com/sketch -->
    <title>Group</title>
    <desc>Created with Sketch.</desc>
    <defs></defs>
    <g id="Page-2-Copy-Copy-Copy" stroke="none" stroke-width="1" fill="none" fill-rule="evenodd" sketch:type="MSPage">
        <g id="Servces.png" sketch:type="MSArtboardGroup" transform="translate(-1096.000000, -2532.000000)">
            <g id="Group" sketch:type="MSLayerGroup" transform="translate(1096.000000, 2532.000000)">
                <g sketch:type="MSShapeGroup">
                    <rect id="Rectangle-165" stroke="#902AC4" stroke-width="2" fill="#FFFFFF" x="0" y="0" width="30" height="44" rx="3"></rect>
                    <rect id="Rectangle-167" fill="#902AC4" x="4" y="18" width="6" height="4"></rect>
                    <rect id="Rectangle-167" fill="#902AC4" x="4" y="24" width="6" height="4"></rect>
                    <rect id="Rectangle-167" fill="#902AC4" x="4" y="30" width="6" height="4"></rect>
                    <rect id="Rectangle-168" fill="#902AC4" x="12" y="18" width="6" height="4"></rect>
                    <rect id="Rectangle-168" fill="#902AC4" x="12" y="24" width="6" height="4"></rect>
                    <rect id="Rectangle-168" fill="#902AC4" x="12" y="30" width="6" height="4"></rect>
                    <rect id="Rectangle-171" fill="#902AC4" x="4" y="36" width="6" height="4"></rect>
                    <rect id="Rectangle-170" fill="#902AC4" x="12" y="36" width="6" height="4"></rect>
                    <rect id="Rectangle-169" fill="#902AC4" x="20" y="18" width="6" height="4"></rect>
                    <rect id="Rectangle-169" fill="#902AC4" x="20" y="24" width="6" height="4"></rect>
                    <rect id="Rectangle-169" fill="#902AC4" x="20" y="30" width="6" height="10"></rect>
                    <rect id="Rectangle-166" stroke="#902AC4" stroke-width="2" fill="#FFFFFF" x="4" y="4" width="22" height="11" rx="2"></rect>
                </g>
                <g id="Group-+-Group-+-Group" transform="translate(40.000000, 26.000000)" stroke="#902AC4" stroke-width="2" fill="#FFFFFF" sketch:type="MSShapeGroup">
                    <g id="Oval-625-+-Oval-625" transform="translate(0.000000, 5.290805)">
                        <path d="M8.31904776,12.4344789 C12.913531,12.4344789 16.6380955,10.4774988 16.6380955,8.76065557 C16.6380955,7.91711346 16.6380955,9.04325736 16.6380955,4.52162868 C15.126913,2.79214456 10.6561088,1.69561076 8.31904776,1.69561076 C5.99589776,1.69561076 0.519940487,3.39122151 1.6994237e-13,4.52162868 C-2.12454198e-13,7.91285019 1.6994237e-13,7.91191526 1.6994237e-13,8.76065557 C1.6994237e-13,10.4774988 3.72456455,12.4344789 8.31904776,12.4344789 Z" id="Oval-625"></path>
                        <ellipse id="Oval-625" cx="8.31904776" cy="3.9564251" rx="8.31904776" ry="3.9564251"></ellipse>
                    </g>
                    <g id="Oval-625-+-Oval-625" transform="translate(0.000000, 0.381818)">
                        <path d="M8.31904776,12.4344789 C12.913531,12.4344789 16.6380955,10.4774988 16.6380955,8.76065557 C16.6380955,7.91711346 16.6380955,9.04325736 16.6380955,4.52162868 C15.126913,2.79214456 10.6561088,1.69561076 8.31904776,1.69561076 C5.99589776,1.69561076 0.519940487,3.39122151 1.6994237e-13,4.52162868 C-2.12454198e-13,7.91285019 1.6994237e-13,7.91191526 1.6994237e-13,8.76065557 C1.6994237e-13,10.4774988 3.72456455,12.4344789 8.31904776,12.4344789 Z" id="Oval-625"></path>
                        <ellipse id="Oval-625" cx="8.31904776" cy="3.9564251" rx="8.31904776" ry="3.9564251"></ellipse>
                    </g>
                </g>
                <g id="Group-+-Group-+-Group" transform="translate(40.000000, 16.000000)" stroke="#902AC4" stroke-width="2" fill="#FFFFFF" sketch:type="MSShapeGroup">
                    <g id="Oval-625-+-Oval-625" transform="translate(0.000000, 5.290805)">
                        <path d="M8.31904776,12.4344789 C12.913531,12.4344789 16.6380955,10.4774988 16.6380955,8.76065557 C16.6380955,7.91711346 16.6380955,9.04325736 16.6380955,4.52162868 C15.126913,2.79214456 10.6561088,1.69561076 8.31904776,1.69561076 C5.99589776,1.69561076 0.519940487,3.39122151 1.6994237e-13,4.52162868 C-2.12454198e-13,7.91285019 1.6994237e-13,7.91191526 1.6994237e-13,8.76065557 C1.6994237e-13,10.4774988 3.72456455,12.4344789 8.31904776,12.4344789 Z" id="Oval-625"></path>
                        <ellipse id="Oval-625" cx="8.31904776" cy="3.9564251" rx="8.31904776" ry="3.9564251"></ellipse>
                    </g>
                    <g id="Oval-625-+-Oval-625" transform="translate(0.000000, 0.381818)">
                        <path d="M8.31904776,12.4344789 C12.913531,12.4344789 16.6380955,10.4774988 16.6380955,8.76065557 C16.6380955,7.91711346 16.6380955,9.04325736 16.6380955,4.52162868 C15.126913,2.79214456 10.6561088,1.69561076 8.31904776,1.69561076 C5.99589776,1.69561076 0.519940487,3.39122151 1.6994237e-13,4.52162868 C-2.12454198e-13,7.91285019 1.6994237e-13,7.91191526 1.6994237e-13,8.76065557 C1.6994237e-13,10.4774988 3.72456455,12.4344789 8.31904776,12.4344789 Z" id="Oval-625"></path>
                        <ellipse id="Oval-625" cx="8.31904776" cy="3.9564251" rx="8.31904776" ry="3.9564251"></ellipse>
                    </g>
                </g>
                <g id="Group-+-Group-+-Group" transform="translate(32.000000, 29.000000)" stroke="#902AC4" stroke-width="2" fill="#FFFFFF" sketch:type="MSShapeGroup">
                    <g id="Oval-625-+-Oval-625" transform="translate(0.000000, 5.290805)">
                        <path d="M8.31904776,12.4344789 C12.913531,12.4344789 16.6380955,10.4774988 16.6380955,8.76065557 C16.6380955,7.91711346 16.6380955,9.04325736 16.6380955,4.52162868 C15.126913,2.79214456 10.6561088,1.69561076 8.31904776,1.69561076 C5.99589776,1.69561076 0.519940487,3.39122151 1.6994237e-13,4.52162868 C-2.12454198e-13,7.91285019 1.6994237e-13,7.91191526 1.6994237e-13,8.76065557 C1.6994237e-13,10.4774988 3.72456455,12.4344789 8.31904776,12.4344789 Z" id="Oval-625"></path>
                        <ellipse id="Oval-625" cx="8.31904776" cy="3.9564251" rx="8.31904776" ry="3.9564251"></ellipse>
                    </g>
                    <g id="Oval-625-+-Oval-625" transform="translate(0.000000, 0.381818)">
                        <path d="M8.31904776,12.4344789 C12.913531,12.4344789 16.6380955,10.4774988 16.6380955,8.76065557 C16.6380955,7.91711346 16.6380955,9.04325736 16.6380955,4.52162868 C15.126913,2.79214456 10.6561088,1.69561076 8.31904776,1.69561076 C5.99589776,1.69561076 0.519940487,3.39122151 1.6994237e-13,4.52162868 C-2.12454198e-13,7.91285019 1.6994237e-13,7.91191526 1.6994237e-13,8.76065557 C1.6994237e-13,10.4774988 3.72456455,12.4344789 8.31904776,12.4344789 Z" id="Oval-625"></path>
                        <ellipse id="Oval-625" cx="8.31904776" cy="3.9564251" rx="8.31904776" ry="3.9564251"></ellipse>
                    </g>
                </g>
            </g>
        </g>
    </g>
</svg>