<?xml version="1.0" encoding="UTF-8" standalone="no"?>
<svg width="448px" height="448px" viewBox="0 0 448 448" version="1.1" xmlns="http://www.w3.org/2000/svg" xmlns:xlink="http://www.w3.org/1999/xlink" xmlns:sketch="http://www.bohemiancoding.com/sketch/ns">
    <!-- Generator: Sketch 3.1.1 (8761) - http://www.bohemiancoding.com/sketch -->
    <title>Group</title>
    <desc>Created with Sketch.</desc>
    <defs>
        <linearGradient x1="50%" y1="0%" x2="50%" y2="54.9597538%" id="linearGradient-1">
            <stop stop-color="#A5E1FF" offset="0%"></stop>
            <stop stop-color="#FFFFFF" offset="100%"></stop>
        </linearGradient>
        <linearGradient x1="50%" y1="0%" x2="50%" y2="100%" id="linearGradient-2">
            <stop stop-color="#F8F8F8" offset="0%"></stop>
            <stop stop-color="#FFFFFF" offset="100%"></stop>
        </linearGradient>
    </defs>
    <g id="Page-2-Copy-Copy-Copy" stroke="none" stroke-width="1" fill="none" fill-rule="evenodd" sketch:type="MSPage">
        <g id="Home.png" sketch:type="MSArtboardGroup" transform="translate(-572.000000, -1613.000000)">
            <g id="Group" sketch:type="MSLayerGroup" transform="translate(572.000000, 1613.000000)">
                <circle id="Oval-761" stroke="url(#linearGradient-1)" stroke-width="1.12" sketch:type="MSShapeGroup" cx="224.5" cy="224.5" r="181.5"></circle>
                <circle id="Oval-763" stroke="url(#linearGradient-1)" stroke-width="1.12" sketch:type="MSShapeGroup" cx="224.5" cy="224.5" r="138.5"></circle>
                <path d="M256.539,266.724918 L256.539,259.154919 C256.539,259.154919 257.126,253.617919 263.794,251.899919 C263.794,251.899919 274.533,247.978919 282.944,244.317919 C287.294,242.425919 288.23,241.288919 292.618,239.349919 C292.618,239.349919 293.076,237.096919 292.911,235.755919 L296.343,235.755919 C296.343,235.755919 297.127,236.212919 296.343,230.918919 C296.343,230.918919 292.16,229.808919 291.965,221.376919 C291.965,221.376919 288.823,222.434919 288.631,217.324919 C288.5,213.860919 285.82,210.853919 289.677,208.370919 L287.716,203.076919 C287.716,203.076919 283.795,181.704919 295.069,184.841919 C290.313,179.155919 322.029,173.470919 324.089,191.508919 C324.089,191.508919 325.558,201.247919 324.089,207.913919 C324.089,207.913919 328.721,207.377919 325.624,216.280919 C325.624,216.280919 323.925,222.685919 321.31,221.247919 C321.31,221.247919 321.737,229.351919 317.619,230.725919 C317.619,230.725919 317.912,235.038919 317.912,235.332919 L321.835,235.920919 C321.835,235.920919 321.245,239.450919 321.933,239.841919 C321.933,239.841919 326.584,243.027919 332.128,244.450919 C342.815,247.193919 355.461,251.900919 355.461,256.018919 L355.460997,266.724918" id="Shape-2" stroke="#ACB0C0" fill="url(#linearGradient-2)" sketch:type="MSShapeGroup"></path>
                <path d="M96.539,267.724918 L96.539,260.154919 C96.539,260.154919 97.126,254.617919 103.794,252.899919 C103.794,252.899919 114.533,248.978919 122.944,245.317919 C127.294,243.425919 128.23,242.288919 132.618,240.349919 C132.618,240.349919 133.076,238.096919 132.911,236.755919 L136.343,236.755919 C136.343,236.755919 137.127,237.212919 136.343,231.918919 C136.343,231.918919 132.16,230.808919 131.965,222.376919 C131.965,222.376919 128.823,223.434919 128.631,218.324919 C128.5,214.860919 125.82,211.853919 129.677,209.370919 L127.716,204.076919 C127.716,204.076919 123.795,182.704919 135.069,185.841919 C130.313,180.155919 162.029,174.470919 164.089,192.508919 C164.089,192.508919 165.558,202.247919 164.089,208.913919 C164.089,208.913919 168.721,208.377919 165.624,217.280919 C165.624,217.280919 163.925,223.685919 161.31,222.247919 C161.31,222.247919 161.737,230.351919 157.619,231.725919 C157.619,231.725919 157.912,236.038919 157.912,236.332919 L161.835,236.920919 C161.835,236.920919 161.245,240.450919 161.933,240.841919 C161.933,240.841919 166.584,244.027919 172.128,245.450919 C182.815,248.193919 195.461,252.900919 195.461,257.018919 L195.460997,267.724918" id="Shape-3" stroke="#ACB0C0" fill="url(#linearGradient-2)" sketch:type="MSShapeGroup"></path>
                <circle id="Oval-762" stroke="url(#linearGradient-1)" stroke-width="1.12" sketch:type="MSShapeGroup" cx="224" cy="224" r="224"></circle>
                <g id="icon_2553" transform="translate(175.000000, 168.000000)" stroke="#ACB0C0" fill="url(#linearGradient-2)" sketch:type="MSShapeGroup">
                    <path d="M95.0000003,106.522321 C95.0000003,106.522321 92.4913635,88.8482143 87.5860984,86.7904319 C82.6808334,84.7326494 78.1852182,84.4648345 75.9752953,82.6271544 C74.6826259,81.5458528 70.4717747,79.6708866 68.5221273,78.891071 C67.6116468,78.5277963 66.0538641,75.5651365 65.5187996,74.2270924 C64.9779297,72.8890483 61.2663429,70.183131 60.3200625,70.0329206 L60.1720247,64.4612878 L70.9158879,60.7827318 C70.9158879,60.7827318 73.6840968,59.3690498 73.9530805,59.3690498 C74.2239992,59.3690498 72.6691191,57.1276129 72.4688328,56.5257061 C72.2666113,55.9291259 71.2535687,51.8638581 71.2535687,51.8638581 C71.2535687,51.8638581 74.8809771,56.7462277 76.7193543,57.6602737 C76.7193543,57.6602737 73.107427,50.1944989 72.0324601,46.0333521 C70.9516879,41.87114 70.2414937,35.3705466 70.2414937,34.7771624 C70.2414937,34.1795169 68.0151222,16.7199586 66.7998582,13.8233488 C65.5845941,10.9214123 63.9368277,6.98717907 61.1144349,5.0546854 C58.2939773,3.12219174 54.1121531,0.371530963 48.1035625,0.00399495659 C47.7455627,-0.0013316522 47.6546114,-0.0013316522 47.5636602,0.00399495659 C41.5599074,0.372596284 37.3780831,3.12432238 34.556658,5.0546854 C31.7391031,6.98611375 30.0894015,10.9224776 28.8731699,13.8233488 C27.6588734,16.7199586 25.4305668,34.1795169 25.4305668,34.7771624 C25.4305668,35.3705466 24.8006807,42.1342745 23.720876,46.2922253 C22.6410713,50.4555027 18.9527062,57.6592084 18.9527062,57.6592084 C20.7930185,56.7462277 24.4175242,51.8627927 24.4175242,51.8627927 C24.4175242,51.8627927 23.1113088,56.3254256 22.9061847,56.9209404 C22.702028,57.5196513 21.4499964,59.3690498 21.7209152,59.3690498 C21.9879636,59.3690498 24.7581077,60.7827318 24.7581077,60.7827318 L35.5048736,64.4612878 L35.3529656,70.0329206 C34.4095878,70.183131 30.6980011,72.8911789 30.1571312,74.2270924 C29.6152937,75.5651365 28.0613812,78.5277963 27.1528359,78.891071 C25.1983507,79.6698212 20.9923373,81.5458528 19.6987003,82.6271544 C17.4839396,84.4658998 12.2106999,86.0447066 8.09176748,86.7904319 C3.97573778,87.5286998 1.37491789,94.2924277 1.37491789,94.2924277 C1.35943682,94.5225372 -0.034827121,106.304996 5.28825795e-06,106.522321" id="Shape"></path>
                </g>
            </g>
        </g>
    </g>
</svg>