<?xml version="1.0" encoding="UTF-8" standalone="no"?>
<svg width="474px" height="474px" viewBox="0 0 474 474" version="1.1" xmlns="http://www.w3.org/2000/svg" xmlns:xlink="http://www.w3.org/1999/xlink" xmlns:sketch="http://www.bohemiancoding.com/sketch/ns">
    <!-- Generator: Sketch 3.1.1 (8761) - http://www.bohemiancoding.com/sketch -->
    <title>Group 2</title>
    <desc>Created with Sketch.</desc>
    <defs></defs>
    <g id="Page-2-Copy-Copy-Copy" stroke="none" stroke-width="1" fill="none" fill-rule="evenodd" sketch:type="MSPage">
        <g id="Home.png" sketch:type="MSArtboardGroup" transform="translate(-1078.000000, -995.000000)">
            <g id="Group-2" sketch:type="MSLayerGroup" transform="translate(1077.000000, 993.000000)">
                <g id="laptop" transform="translate(139.143130, 271.400000)" sketch:type="MSShapeGroup">
                    <rect id="Rectangle-3" stroke="#C2C5D5" stroke-width="1.12" fill="#FFFFFF" x="-0.24825013" y="0.418716964" width="227.821742" height="11.1549711" rx="3.36"></rect>
                    <path d="M2.49079286,3.74178702 C0.635220671,3.74178702 -0.678970386,5.2389246 -0.44524486,7.08014546 L11.122563,98.2079295 C11.3566064,100.051654 13.044122,101.546288 14.8997556,101.546288 L212.425486,101.546288 C214.277529,101.546288 215.968953,100.04915 216.202679,98.2079295 L227.77048,7.08014546 C228.004524,5.23642101 226.686192,3.74178702 224.834442,3.74178702 L2.49079286,3.74178702 Z" id="Rectangle-2" stroke="#ACB0C0" fill="#F8F8F8"></path>
                    <rect id="Rectangle-2" stroke="#ACB0C0" fill="#E6E8EF" x="10.8568702" y="96.6" width="206" height="107" rx="3.36"></rect>
                    <rect id="Rectangle-1" stroke="#ACB0C0" fill="#F8F8F8" x="10.9255683" y="92.8701994" width="206.094873" height="107.211666" rx="3.36"></rect>
                    <path d="M11.9460709,11.686799 C10.0887756,11.686799 8.73797643,13.1752565 8.93151476,15.0357628 L16.164103,84.5634707 C16.3565049,86.4130523 18.0152966,87.9124345 19.8741482,87.9124345 L206.830326,87.9124345 C208.686925,87.9124345 210.330734,86.423977 210.504149,84.5634707 L216.984725,15.0357628 C217.157122,13.1861811 215.795299,11.686799 213.933946,11.686799 L11.9460709,11.686799 Z" id="Rectangle-4" stroke="#ACB0C0" fill="#FFFFFF"></path>
                    <rect id="Rectangle-5" stroke="#ACB0C0" fill="#F8F8F8" x="29.2780699" y="101.546288" width="170.542034" height="58.2537377" rx="3.36"></rect>
                    <rect id="Rectangle-6" stroke="#ACB0C0" fill="#FFFFFF" x="94.1084387" y="165.377511" width="45.3160413" height="26.6479864" rx="3.36"></rect>
                </g>
                <g id="Rectangle-7-+-Rectangle-8" transform="translate(433.830153, 105.000000) rotate(99.000000) translate(-433.830153, -105.000000) translate(396.830153, 66.000000)" stroke="#ACB0C0" sketch:type="MSShapeGroup">
                    <path d="M2.77388016,18.9162733 C-0.542198252,21.6987934 -0.977437498,26.6394609 1.80936719,29.9606454 L39.7770389,75.2087546 C42.5604316,78.5258728 47.507621,78.9570758 50.8211082,76.1767299 L71.1882623,59.0866583 C74.5043407,56.3041382 74.93958,51.3634707 72.1527753,48.0422862 L34.1851035,2.79417697 C31.4017109,-0.522941169 26.4545215,-0.954144169 23.1410343,1.82620172 L2.77388016,18.9162733 Z" id="Rectangle-7" fill="#F8F8F8"></path>
                    <path d="M4.94409705,27.3133743 L42.6336546,72.2300399 L68.9338995,50.1615142 L31.2443419,5.24484854 L4.94409705,27.3133743 Z" id="Rectangle-8" fill="#FFFFFF"></path>
                </g>
                <g id="Rectangle-7-+-Rectangle-8-+-Oval-5" transform="translate(22.591603, 0.000000)" stroke="#ACB0C0" sketch:type="MSShapeGroup">
                    <g transform="translate(72.941965, 74.143428) rotate(40.000000) translate(-72.941965, -74.143428) translate(26.441965, 16.643428)">
                        <rect id="Rectangle-7" fill="#F8F8F8" x="5.32907052e-13" y="-5.61328761e-13" width="93.0852321" height="114.998698" rx="6.16"></rect>
                        <rect id="Rectangle-8" fill="#FFFFFF" x="6.26535216" y="5.26711593" width="81.4495781" height="97.4416447" rx="3.36"></rect>
                        <ellipse id="Oval-5" fill="#E6E8EF" cx="45.5243089" cy="109.384709" rx="2.79739318" ry="2.74364357"></ellipse>
                    </g>
                </g>
                <ellipse id="Oval-6" stroke="#F59D2C" fill="#FFCD96" sketch:type="MSShapeGroup" cx="314.409843" cy="168.609253" rx="5.76202849" ry="5.76477887"></ellipse>
                <ellipse id="Oval-6" stroke="#F59D2C" fill="#FFCD96" sketch:type="MSShapeGroup" cx="266.983916" cy="114.065576" rx="9.75112514" ry="9.75577962"></ellipse>
                <ellipse id="Oval-6" stroke="#00BF5C" fill="#54F08D" sketch:type="MSShapeGroup" cx="257.232791" cy="216.944706" rx="10.6375911" ry="10.6426687"></ellipse>
                <ellipse id="Oval-6" stroke="#6DB5FF" fill-opacity="0.354761096" fill="#00A9FF" sketch:type="MSShapeGroup" cx="197.492604" cy="155.856254" rx="18.952176" ry="18.9612224"></ellipse>
                <g id="Rectangle-1-+-Path-1-+-Path-2" transform="translate(48.798795, 390.206934) rotate(-40.000000) translate(-48.798795, -390.206934) translate(17.298795, 351.206934)" stroke="#ACB0C0" sketch:type="MSShapeGroup">
                    <rect id="Rectangle-1" fill="#F8F8F8" x="0.280339029" y="0.847861501" width="62.6537414" height="76.3598883" rx="4"></rect>
                    <path d="M7.54513714,77.2404072 L7.54513714,0.951524077" id="Path-1"></path>
                    <path d="M52.6013871,0.979108243 L52.6013871,76.8778034" id="Path-2"></path>
                </g>
                <g id="Group" transform="translate(75.607866, 341.588929) rotate(-50.000000) translate(-75.607866, -341.588929) translate(70.107866, 307.588929)" stroke="#ACB0C0" sketch:type="MSShapeGroup">
                    <path d="M4.95355559,0.159799682 C2.19993056,0.159799682 -0.0323235696,2.38716868 -0.0323235696,5.15283538 L-0.0323235696,59.0087075 C-0.0323235696,59.6865087 0.194865192,60.7242226 0.482473936,61.3423176 L3.17465477,67.1280373 C4.15711456,69.2394247 5.7490961,69.24136 6.7324564,67.1280373 L9.42463724,61.3423176 C9.70895205,60.7313016 9.93943474,59.6796063 9.93943474,59.0087075 L9.93943474,5.15283538 C9.93943474,2.39525791 7.70157754,0.159799682 4.95355559,0.159799682 L4.95355559,0.159799682 Z" id="Rectangle-11" fill="#E6E8EF"></path>
                    <path d="M-0.148080749,59.7094823 L9.70235476,59.7094823" id="Path-1"></path>
                    <path d="M2.33073999,65.9246967 L7.65682654,65.9246966" id="Path-2"></path>
                    <path d="M0.0398794457,8.35005848 L9.89917215,8.35005843" id="Path-3"></path>
                </g>
                <g id="Group" transform="translate(376.440840, 358.200000)" stroke="#ACB0C0" sketch:type="MSShapeGroup">
                    <ellipse id="Oval-127" fill="#F8F8F8" cx="57.5923591" cy="31.6880724" rx="31.9676061" ry="31.928006"></ellipse>
                    <ellipse id="Oval-128" fill="#F8F8F8" cx="57.1080014" cy="32.1718301" rx="23.7335258" ry="23.7041257"></ellipse>
                    <path d="M57.1080014,50.0708637 C67.0056255,50.0708637 75.0292352,42.0571934 75.0292352,32.1718301 C75.0292352,22.2864667 67.0056255,14.2727964 57.1080014,14.2727964 C47.2103773,14.2727964 39.1867677,22.2864667 39.1867677,32.1718301 C39.1867677,42.0571934 47.2103773,50.0708637 57.1080014,50.0708637 Z" id="Oval-129" fill="#E6E8EF"></path>
                    <path d="M71.5073258,50.6826945 L68.1679703,53.4847465 L73.64785,60.0154129 C75.0665444,61.706147 77.5842765,61.9291605 79.2823205,60.5043324 L79.8296373,60.0450791 C81.5227751,58.6243678 81.7421586,56.0983524 80.326561,54.4113089 L74.8466813,47.8806425 L71.5073258,50.6826945 Z" id="Rectangle-22" fill="#F8F8F8"></path>
                    <path d="M36.8332782,5.25720694 C39.9892753,7.90540294 38.9457878,16.0710287 35.0158447,20.7545524 C31.0859017,25.4380761 24.6521908,22.3787173 22.5084206,24.9335629 C20.3646504,27.4884084 8.68164754,45.3664974 7.24038447,47.0841279 C5.79912141,48.8017583 2.96855309,48.7426059 1.42881036,47.4506084 C-0.110932367,46.1586108 -0.416420184,43.2403019 0.671776928,41.9434391 C1.75997404,40.6465763 18.4138197,25.8514671 20.5575899,23.2966216 C22.7013601,20.741776 18.6462498,14.5755695 22.367217,10.1410935 C26.0881841,5.70661755 33.6772811,2.60901094 36.8332782,5.25720694 Z" id="Path-1" fill="#E6E8EF"></path>
                </g>
                <path d="M184.547875,386.075049 L320.177161,386.075049" id="Line" stroke="#C2C5D5" sketch:type="MSShapeGroup"></path>
                <path d="M208.482455,401.075049 L298.901979,401.075049" id="Line-2" stroke="#C2C5D5" sketch:type="MSShapeGroup"></path>
                <path d="M231.530569,415.075049 L277.626796,415.075049" id="Line-3" stroke="#C2C5D5" sketch:type="MSShapeGroup"></path>
                <g id="Group" transform="translate(97.350933, 70.535819) rotate(130.000000) translate(-97.350933, -70.535819) translate(49.850933, 31.535819)" stroke-linecap="square" stroke="#95E6BC" stroke-width="2" sketch:type="MSShapeGroup">
                    <g transform="translate(0.000000, -0.000000)">
                        <path d="M24,7 L24,77.018292" id="Line" fill="#E5FFEF"></path>
                        <path d="M38,1 L56,1" id="Line"></path>
                        <path d="M-1.42108547e-14,6 L95,6" id="Line" fill="#E5FFEF"></path>
                        <path d="M2,15 L20,15" id="Line"></path>
                        <path d="M2,24 L20,24" id="Line"></path>
                        <path d="M2,33 L20,33" id="Line-5"></path>
                        <path d="M2,42 L20,42" id="Line-6"></path>
                        <rect id="Rectangle-135" fill="#E5FFEF" x="30" y="13" width="59" height="17" rx="3"></rect>
                        <rect id="Rectangle-135" fill="#E5FFEF" x="30" y="34" width="59" height="17" rx="3"></rect>
                        <rect id="Rectangle-135" fill="#E5FFEF" x="30" y="55" width="59" height="17" rx="3"></rect>
                    </g>
                </g>
            </g>
        </g>
    </g>
</svg>