<?xml version="1.0" encoding="UTF-8" standalone="no"?>
<svg width="836px" height="303px" viewBox="0 0 836 303" version="1.1" xmlns="http://www.w3.org/2000/svg" xmlns:xlink="http://www.w3.org/1999/xlink" xmlns:sketch="http://www.bohemiancoding.com/sketch/ns">
    <!-- Generator: Sketch 3.1.1 (8761) - http://www.bohemiancoding.com/sketch -->
    <title>Group</title>
    <desc>Created with Sketch.</desc>
    <defs></defs>
    <g id="Page-2-Copy-Copy-Copy" stroke="none" stroke-width="1" fill="none" fill-rule="evenodd" sketch:type="MSPage">
        <g id="Servces.png" sketch:type="MSArtboardGroup" transform="translate(-681.000000, -362.000000)">
            <g id="Group" sketch:type="MSLayerGroup" transform="translate(682.000000, 362.000000)">
                <path d="M361,20 C361.09177,8.85002214 352.221409,0 341,0 C333.0523,0 325.99755,5.00406488 323,12 C320.430774,9.1111603 316.600669,7.19544613 312,7 C304.575214,7.19544613 298.296065,13.4600857 298,21 C298.296065,22.5169538 298.48575,23.80066 299,25 C292.508181,27.3327162 288,33.3916569 288,41 C288,49.610134 295.391968,57 305,57 L355,57 C364.608032,57 372,49.610134 372,41 C372,33.1257395 367.148279,26.882511 360,25 C360.867022,23.1768725 361.09177,21.4987825 361,20 Z" id="Fill-1" fill="#C2C5D5" sketch:type="MSShapeGroup"></path>
                <path d="M539,25 C538.855054,24.1107545 539.039668,22.7270663 539,21 C539.039668,12.2973867 531.7533,5 523,5 C516.007247,5 510.212273,9.12615876 508,15 C505.639564,12.5127111 502.493407,10.9330872 499,11 C492.615354,10.9330872 487.457482,16.0986672 487,22 C487.457482,23.566611 487.613294,24.6251056 488,26 C482.703148,27.5375029 479,32.5334715 479,38 C479,45.9066017 485.071974,52 493,52 L534,52 C541.928026,52 548,45.9066017 548,38 C548,32.3142063 544.014657,27.166281 539,25" id="Fill-1" fill="#C2C5D5" sketch:type="MSShapeGroup"></path>
                <g id="Imported-Layers" transform="translate(345.009671, 0.233000)" sketch:type="MSShapeGroup">
                    <path d="M73.8241739,113.755472 L3.9746087,73.3901887 C2.22017391,72.3758491 1.13043478,70.4875472 1.13043478,68.4588679 L1.13043478,48.4460377 L152.608696,48.4460377 L152.608696,68.4588679 C152.608696,70.4875472 151.518957,72.3758491 149.764522,73.3924528 L79.9149565,113.757736 C78.9925217,114.289811 77.9389565,114.570566 76.8695652,114.570566 C75.8001739,114.570566 74.7466087,114.289811 73.8241739,113.755472 Z" id="Fill-1" stroke="#ACB0C0" fill="#E5E6EC"></path>
                    <path d="M73.9643478,93.3592453 L3.99043478,52.9011321 C2.184,51.8573585 1.10782609,49.9871698 1.10782609,47.9018868 C1.10782609,45.8143396 2.184,43.9441509 3.99043478,42.9003774 L73.9643478,2.44226415 C74.8393043,1.93509434 75.8363478,1.67018868 76.8446957,1.67018868 C77.8553043,1.67018868 78.8523478,1.93509434 79.7273043,2.44226415 L149.703478,42.9003774 C151.507652,43.9441509 152.583826,45.8143396 152.583826,47.9018868 C152.583826,49.9871698 151.507652,51.8573585 149.703478,52.9011321 L79.7295652,93.3592453 C78.8546087,93.8664151 77.8575652,94.1335849 76.8469565,94.1335849 C75.8363478,94.1335849 74.8393043,93.8664151 73.9643478,93.3592453 Z" id="Fill-3" stroke="#ACB0C0" fill="#F8F8F8"></path>
                    <path d="M74.7496879,88.2796825 L11.7049828,51.8279578 C10.0774312,50.8875445 9.10782609,49.2025523 9.10782609,47.3237657 C9.10782609,45.4429391 10.0774312,43.757947 11.7049828,42.8175337 L74.7496879,6.36580892 C75.5380013,5.9088619 76.436312,5.67018868 77.3448076,5.67018868 C78.2553402,5.67018868 79.1536508,5.9088619 79.9419643,6.36580892 L142.988706,42.8175337 C144.614221,43.757947 145.583826,45.4429391 145.583826,47.3237657 C145.583826,49.2025523 144.614221,50.8875445 142.988706,51.8279578 L79.9440013,88.2796825 C79.1556878,88.7366295 78.2573772,88.9773427 77.3468446,88.9773427 C76.436312,88.9773427 75.5380013,88.7366295 74.7496879,88.2796825 Z" id="Fill-4" stroke="#D2D4DC" fill="#F8F8F8"></path>
                    <path d="M68.1154783,100.618868 C68.1154783,102.969057 66.4673043,103.922264 64.4347826,102.74717 C62.4022609,101.572075 60.754087,98.7124528 60.754087,96.3622642 C60.754087,94.0120755 62.4022609,93.0588679 64.4347826,94.2339623 C66.4673043,95.4090566 68.1154783,98.2686792 68.1154783,100.618868" id="Fill-5" fill="#C2C5D5"></path>
                    <path d="M56.8111304,93.8264151 C56.8111304,96.1766038 55.1629565,97.1298113 53.1304348,95.954717 C51.097913,94.7796226 49.4497391,91.92 49.4497391,89.5698113 C49.4497391,87.2196226 51.097913,86.2664151 53.1304348,87.4415094 C55.1629565,88.6166038 56.8111304,91.4762264 56.8111304,93.8264151" id="Fill-6" fill="#C2C5D5"></path>
                    <path d="M45.5067826,87.0339623 C45.5067826,89.3841509 43.8586087,90.3373585 41.826087,89.1622642 C39.7935652,87.9871698 38.1453913,85.1275472 38.1453913,82.7773585 C38.1453913,80.4271698 39.7935652,79.4739623 41.826087,80.6490566 C43.8586087,81.8241509 45.5067826,84.6837736 45.5067826,87.0339623" id="Fill-7" fill="#C2C5D5"></path>
                    <path d="M10.173913,70.754717 L10.173913,70.754717 C9.63582609,70.4422642 9.19495652,69.6 9.19495652,68.8822642 L9.19495652,62.4384906 C9.19495652,61.7207547 9.63582609,61.3856604 10.173913,61.6981132 C10.712,62.0083019 11.1528696,62.8528302 11.1528696,63.570566 L11.1528696,70.0143396 C11.1528696,70.7320755 10.712,71.0671698 10.173913,70.754717" id="Fill-8" fill="#C2C5D5"></path>
                    <path d="M14.6956522,73.7728302 L14.6956522,73.7728302 C14.1575652,73.4626415 13.7166957,72.6181132 13.7166957,71.9003774 L13.7166957,65.4588679 C13.7166957,64.7388679 14.1575652,64.4060377 14.6956522,64.7162264 C15.2337391,65.0286792 15.6746087,65.8709434 15.6746087,66.5909434 L15.6746087,73.0324528 C15.6746087,73.7501887 15.2337391,74.085283 14.6956522,73.7728302" id="Fill-9" fill="#C2C5D5"></path>
                    <path d="M19.2173913,76.6981132 L19.2173913,76.6981132 C18.6793043,76.3856604 18.2384348,75.5433962 18.2384348,74.8256604 L18.2384348,68.3818868 C18.2384348,67.6641509 18.6793043,67.3290566 19.2173913,67.6415094 C19.7554783,67.9516981 20.1963478,68.7962264 20.1963478,69.5139623 L20.1963478,75.9577358 C20.1963478,76.6754717 19.7554783,77.010566 19.2173913,76.6981132" id="Fill-10" fill="#C2C5D5"></path>
                    <path d="M145.789913,63.9758491 L134.180348,70.6890566 C133.334783,71.1781132 132.642957,70.6528302 132.642957,69.5230189 C132.642957,68.3954717 133.334783,67.0709434 134.180348,66.5818868 L145.789913,59.8686792 C146.635478,59.3796226 147.327304,59.9049057 147.327304,61.0324528 C147.327304,62.1622642 146.635478,63.4867925 145.789913,63.9758491" id="Fill-11" fill="#C2C5D5"></path>
                    <path d="M145.789913,69.9192453 L134.180348,76.6324528 C133.334783,77.1215094 132.642957,76.5962264 132.642957,75.4664151 C132.642957,74.3388679 133.334783,73.0143396 134.180348,72.525283 L145.789913,65.8120755 C146.635478,65.3230189 147.327304,65.8483019 147.327304,66.9758491 C147.327304,68.1056604 146.635478,69.4301887 145.789913,69.9192453" id="Fill-12" fill="#C2C5D5"></path>
                    <path d="M122.340174,81.0498113 L115.428696,85.0460377 C114.232696,85.7366038 113.256,84.9962264 113.256,83.4 C113.256,81.8037736 114.232696,79.9313208 115.428696,79.2407547 L122.340174,75.2445283 C123.536174,74.5539623 124.51287,75.2943396 124.51287,76.890566 C124.51287,78.4867925 123.536174,80.3592453 122.340174,81.0498113 L122.340174,81.0498113 Z" id="Fill-13" fill="#C2C5D5"></path>
                    <path d="M122.340174,81.0498113 L115.428696,85.0460377 C114.232696,85.7366038 113.256,84.9962264 113.256,83.4 C113.256,81.8037736 114.232696,79.9313208 115.428696,79.2407547 L122.340174,75.2445283 C123.536174,74.5539623 124.51287,75.2943396 124.51287,76.890566 C124.51287,78.4867925 123.536174,80.3592453 122.340174,81.0498113 L122.340174,81.0498113 Z" id="Stroke-14"></path>
                </g>
                <path d="M320,51 C320.169528,42.1421231 312.988759,35 304,35 C297.47091,35 291.759922,39.0383681 289,45 C287.253484,42.3528662 284.152923,40.8068513 281,41 C274.41803,40.8068513 269.334909,45.8625253 269,52 C269.334909,53.1715767 269.488464,54.2075502 270,55 C264.64948,57.0579815 261,61.947653 261,68 C261,75.0362485 266.983974,81 274,81 L316,81 C323.016026,81 329,75.0362485 329,68 C329,61.733053 325.072416,56.694658 320,55 C319.987589,53.7041427 320.169528,52.3498947 320,51 Z" id="Fill-1" stroke="#FFFFFF" fill="#C2C5D5" sketch:type="MSShapeGroup"></path>
                <path d="M570.360825,57.1363636 C570.445479,55.8578601 570.597987,54.7096933 570.360825,53.5909091 C570.597987,46.0552783 564.578813,40 557.43299,40 C551.571204,40 546.784052,43.4238339 544.505155,48.2727273 C543.006597,46.2339518 540.407597,44.9232 537.453608,44.7272727 C532.247466,44.9232 527.986615,49.2095323 528.051546,54.7727273 C527.986615,55.4063368 528.11533,56.2846621 528.639175,57.1363636 C524.059123,58.7013322 521,62.8469232 521,67.7727273 C521,73.9437759 526.015978,79 532.164948,79 L566.835052,79 C572.984022,79 578,73.9437759 578,67.7727273 C578,62.6649797 574.707761,58.393297 570.360825,57.1363636" id="Fill-1" stroke="#FFFFFF" fill="#C2C5D5" sketch:type="MSShapeGroup"></path>
                <g transform="translate(648.000000, 94.500000) rotate(10.000000) translate(-648.000000, -94.500000) translate(629.000000, 82.000000)" stroke="#A56EFF" sketch:type="MSShapeGroup">
                    <rect id="Rectangle-69" stroke-width="0.72" fill="#F4EEFF" x="-2.0571904e-12" y="-9.64307999e-13" width="38" height="25" rx="5.76"></rect>
                    <path d="M1.8618873,1.77267277 L17.7549681,15.8686091 C18.5023718,16.5314985 19.7220699,16.5406508 20.475972,15.8918636 L36.3546372,2.2271262" id="Path-16" stroke-width="0.9"></path>
                </g>
                <g id="Rectangle-52-+-Path-28" transform="translate(721.094294, 156.296403) rotate(12.000000) translate(-721.094294, -156.296403) translate(704.594294, 137.796403)" stroke="#A56EFF" sketch:type="MSShapeGroup">
                    <path d="M26.8589912,0.0747783289 L4.26631585,0.0747783289 C1.97485648,0.0747783289 0.117261643,1.93636327 0.117261643,4.22930073 L0.117261643,32.4470236 C0.117261643,34.7415029 1.98323448,36.601546 4.27377279,36.601546 L28.9112722,36.601546 C31.2068499,36.601546 33.0677833,34.7436472 33.0677833,32.4338008 L33.0677833,6.16870983 L26.8589912,0.0747783289 Z" id="Rectangle-52" stroke-width="0.8" fill="#F4EEFF"></path>
                    <path d="M26.0530404,1.46406516 C26.0530404,0.953780649 26.3522593,0.82544177 26.7188234,1.17498898 L31.9539094,6.16704912 C32.3216112,6.51768127 32.2089189,6.80192478 31.692779,6.80192478 L26.9799537,6.80192478 C26.4680336,6.80192478 26.0530404,6.39106984 26.0530404,5.87797294 L26.0530404,1.46406516 Z" id="Path-26"></path>
                    <path d="M6.1167502,16.3005886 L18.3502506,16.3005886" id="Line-3" fill-opacity="0.354761096" fill="#0054FF"></path>
                    <path d="M6.1167502,19.6965445 L18.3502506,19.6965445" id="Line-3" fill-opacity="0.354761096" fill="#0054FF"></path>
                    <path d="M6.1167502,23.0925005 L27.9307298,23.0925005" id="Line-3" fill-opacity="0.354761096" fill="#0054FF"></path>
                    <path d="M6.1167502,26.4884564 L27.9041121,26.4884564" id="Line-3" fill-opacity="0.354761096" fill="#0054FF"></path>
                    <rect id="Rectangle-71" x="6.1167502" y="9.50867667" width="3.39819455" height="3.39595595"></rect>
                </g>
                <path d="M202.992872,96.9519877 C200.529985,96.9519877 198.533497,94.9554992 198.533497,92.4925468 C198.533497,90.0297247 200.529985,88.0329756 202.992872,88.0329756 C205.455629,88.0329756 207.452053,90.0297247 207.452053,92.4925468 C207.452053,94.9554992 205.455629,96.9519877 202.992872,96.9519877 L202.992872,96.9519877 Z M217,90.6081081 L216.243243,90.6081081 L213.216216,89.8513514 L212.459459,87.5810811 L213.972973,83.7972973 L211.702703,81.527027 L210.945946,81.527027 L207.918919,83.0405405 L205.648649,82.2837838 L204.891892,78.5 L201.108108,78.5 L201.108108,79.2567568 L200.351351,82.2837838 L198.081081,83.0405405 L194.297297,81.527027 L192.027027,83.7972973 L193.540541,87.5810811 L192.783784,89.8513514 L189,90.6081081 L189,94.3918919 L189.756757,94.3918919 L192.783784,95.1486486 L193.540541,97.4189189 L192.027027,101.202703 L194.297297,103.472973 L195.054054,103.472973 L198.081081,101.959459 L200.351351,102.716216 L201.108108,106.5 L204.891892,106.5 L205.648649,102.716216 L207.918919,101.959459 L211.702703,103.472973 L213.972973,101.202703 L213.972973,100.445946 L212.459459,97.4189189 L213.216216,95.1486486 L217,94.3918919 L217,90.6081081 Z" id="Fill-1" stroke="#F59D2C" fill="#FFC95A" sketch:type="MSShapeGroup"></path>
                <path d="M120.801866,160.262687 C121.022497,159.224418 121.022497,156.844955 120.801866,156.743097 C121.022497,152.587491 117.370854,149 113.058769,149 C108.857734,149 105.662377,152.672424 105.315672,156.743097 C105.210609,156.931694 105.210609,158.77265 105.315672,160.262687 L103.907836,160.262687 C103.083685,160.579723 102.5,161.00303 102.5,161.670522 L102.5,177.860634 C102.5,178.71144 103.083685,179.102219 103.907836,179.26847 L122.209701,179.26847 C123.121864,179.102219 123.733106,178.71144 123.617537,177.860634 L123.617537,161.670522 C123.733106,161.00303 123.121864,160.579723 122.209701,160.262687 L120.801866,160.262687 Z M107.921219,156.836371 C107.921219,154.011917 110.28487,151.414701 113.116553,151.414701 C115.942363,151.414701 118.311887,154.058449 118.311887,156.827336 L118.311887,160.579723 L107.921219,160.579723 L107.921219,156.836371 L107.921219,156.836371 Z" id="Shape" stroke="#F59D2C" fill="#FFC95A" sketch:type="MSShapeGroup"></path>
                <g id="Imported-Layers" transform="translate(363.302106, 232.940504)" sketch:type="MSShapeGroup">
                    <path d="M-0.302104504,26.0936405 C-0.303529374,27.6098767 0.482286376,29.0117907 1.75896981,29.7702752 L66.6026617,68.2793051 C68.680122,69.5133998 71.8219602,69.6467758 73.6208584,68.5790348 L109.636819,47.1122598 C110.912078,46.3545081 111.697894,44.9547926 111.697894,43.4400221 L111.697894,41.0673269 L-0.29426772,23.2999878 L-0.302104504,26.0936405 Z" id="Fill-1" stroke="#ACB0C0" fill="#E6E8EF"></path>
                    <path d="M70.4623184,64.3587411 C69.1208263,64.3587411 67.7686079,64.0205087 66.7517626,63.4289617 L1.20242418,25.3432695 C0.245645677,24.7869851 -0.302106439,24.0766969 -0.302106439,23.3944749 C-0.302106439,22.8547423 0.0568642691,22.3488329 0.709018225,21.9703005 L38.0884521,0.25074038 C38.8021031,-0.163774268 39.7996412,-0.39118161 40.8958605,-0.39118161 C42.2373526,-0.39118161 43.590286,-0.0529491713 44.6078464,0.538597775 L110.157185,38.62429 C111.112533,39.1805744 111.661,39.8901429 111.661,40.5730846 C111.661715,41.1120976 111.302745,41.6180069 110.650591,41.9972591 L73.2704418,63.7160995 C72.5567909,64.1306141 71.5585377,64.3587411 70.4623184,64.3587411" id="Fill-2" stroke="#ACB0C0" fill="#F8F8F8"></path>
                    <path d="M10.2621287,22.4654152 C9.12872522,23.1246086 9.12872522,24.7711529 10.2621287,25.4303463 L63.2667996,56.2274894 C63.7930993,56.5333378 64.4416778,56.5333378 64.9679775,56.2274894 L97.4612623,37.3476425 C98.5946658,36.6891687 98.5946658,35.0419048 97.4612623,34.383431 L44.4565915,3.5855683 C43.9302918,3.27971982 43.2817132,3.27971982 42.7554135,3.5855683 L10.2621287,22.4654152 Z" id="Stroke-5" stroke="#ACB0C0" fill="#FFFFFF"></path>
                    <path d="M91.2879672,49.2627797 C91.2879672,50.8776597 89.7855819,52.1866912 87.9328068,52.1866912 C86.0793166,52.1866912 84.5776463,50.8776597 84.5776463,49.2627797 C84.5776463,47.6478997 86.0793166,46.3381486 87.9328068,46.3381486 C89.7855819,46.3381486 91.2879672,47.6478997 91.2879672,49.2627797" id="Fill-6" fill="#C6CADB"></path>
                </g>
                <g id="Imported-Layers" transform="translate(722.542616, 226.158886)" sketch:type="MSShapeGroup">
                    <path d="M-0.302104504,26.0936405 C-0.303529374,27.6098767 0.482286376,29.0117907 1.75896981,29.7702752 L66.6026617,68.2793051 C68.680122,69.5133998 71.8219602,69.6467758 73.6208584,68.5790348 L109.636819,47.1122598 C110.912078,46.3545081 111.697894,44.9547926 111.697894,43.4400221 L111.697894,41.0673269 L-0.29426772,23.2999878 L-0.302104504,26.0936405 Z" id="Fill-1" stroke="#ACB0C0" fill="#E6E8EF"></path>
                    <path d="M70.4623184,64.3587411 C69.1208263,64.3587411 67.7686079,64.0205087 66.7517626,63.4289617 L1.20242418,25.3432695 C0.245645677,24.7869851 -0.302106439,24.0766969 -0.302106439,23.3944749 C-0.302106439,22.8547423 0.0568642691,22.3488329 0.709018225,21.9703005 L38.0884521,0.25074038 C38.8021031,-0.163774268 39.7996412,-0.39118161 40.8958605,-0.39118161 C42.2373526,-0.39118161 43.590286,-0.0529491713 44.6078464,0.538597775 L110.157185,38.62429 C111.112533,39.1805744 111.661,39.8901429 111.661,40.5730846 C111.661715,41.1120976 111.302745,41.6180069 110.650591,41.9972591 L73.2704418,63.7160995 C72.5567909,64.1306141 71.5585377,64.3587411 70.4623184,64.3587411" id="Fill-2" stroke="#ACB0C0" fill="#F8F8F8"></path>
                    <path d="M10.2621287,22.4654152 C9.12872522,23.1246086 9.12872522,24.7711529 10.2621287,25.4303463 L63.2667996,56.2274894 C63.7930993,56.5333378 64.4416778,56.5333378 64.9679775,56.2274894 L97.4612623,37.3476425 C98.5946658,36.6891687 98.5946658,35.0419048 97.4612623,34.383431 L44.4565915,3.5855683 C43.9302918,3.27971982 43.2817132,3.27971982 42.7554135,3.5855683 L10.2621287,22.4654152 Z" id="Stroke-5" stroke="#ACB0C0" fill="#FFFFFF"></path>
                    <path d="M91.2879672,49.2627797 C91.2879672,50.8776597 89.7855819,52.1866912 87.9328068,52.1866912 C86.0793166,52.1866912 84.5776463,50.8776597 84.5776463,49.2627797 C84.5776463,47.6478997 86.0793166,46.3381486 87.9328068,46.3381486 C89.7855819,46.3381486 91.2879672,47.6478997 91.2879672,49.2627797" id="Fill-6" fill="#C6CADB"></path>
                </g>
                <g id="Imported-Layers" transform="translate(0.500000, 229.833749)" sketch:type="MSShapeGroup">
                    <path d="M-0.302104504,26.0936405 C-0.303529374,27.6098767 0.482286376,29.0117907 1.75896981,29.7702752 L66.6026617,68.2793051 C68.680122,69.5133998 71.8219602,69.6467758 73.6208584,68.5790348 L109.636819,47.1122598 C110.912078,46.3545081 111.697894,44.9547926 111.697894,43.4400221 L111.697894,41.0673269 L-0.29426772,23.2999878 L-0.302104504,26.0936405 Z" id="Fill-1" stroke="#ACB0C0" fill="#E6E8EF"></path>
                    <path d="M70.4623184,64.3587411 C69.1208263,64.3587411 67.7686079,64.0205087 66.7517626,63.4289617 L1.20242418,25.3432695 C0.245645677,24.7869851 -0.302106439,24.0766969 -0.302106439,23.3944749 C-0.302106439,22.8547423 0.0568642691,22.3488329 0.709018225,21.9703005 L38.0884521,0.25074038 C38.8021031,-0.163774268 39.7996412,-0.39118161 40.8958605,-0.39118161 C42.2373526,-0.39118161 43.590286,-0.0529491713 44.6078464,0.538597775 L110.157185,38.62429 C111.112533,39.1805744 111.661,39.8901429 111.661,40.5730846 C111.661715,41.1120976 111.302745,41.6180069 110.650591,41.9972591 L73.2704418,63.7160995 C72.5567909,64.1306141 71.5585377,64.3587411 70.4623184,64.3587411" id="Fill-2" stroke="#ACB0C0" fill="#F8F8F8"></path>
                    <path d="M10.2621287,22.4654152 C9.12872522,23.1246086 9.12872522,24.7711529 10.2621287,25.4303463 L63.2667996,56.2274894 C63.7930993,56.5333378 64.4416778,56.5333378 64.9679775,56.2274894 L97.4612623,37.3476425 C98.5946658,36.6891687 98.5946658,35.0419048 97.4612623,34.383431 L44.4565915,3.5855683 C43.9302918,3.27971982 43.2817132,3.27971982 42.7554135,3.5855683 L10.2621287,22.4654152 Z" id="Stroke-5" stroke="#ACB0C0" fill="#FFFFFF"></path>
                    <path d="M91.2879672,49.2627797 C91.2879672,50.8776597 89.7855819,52.1866912 87.9328068,52.1866912 C86.0793166,52.1866912 84.5776463,50.8776597 84.5776463,49.2627797 C84.5776463,47.6478997 86.0793166,46.3381486 87.9328068,46.3381486 C89.7855819,46.3381486 91.2879672,47.6478997 91.2879672,49.2627797" id="Fill-6" fill="#C6CADB"></path>
                </g>
                <path d="M381.756842,253.562716 L378.58742,255.42061 C377.265718,256.195416 377.431317,257.548674 378.957581,258.443367 L381.386443,259.867061 C382.912707,260.761755 385.221587,260.858967 386.543288,260.084161 L389.712711,258.226267 C391.034412,257.451461 390.868813,256.098204 389.342549,255.20351 L386.913688,253.779816 C385.387423,252.885123 383.078544,252.78791 381.756842,253.562716" id="Imported-Layers" stroke="#ACB0C0" fill="#F9F9F9" sketch:type="MSShapeGroup"></path>
                <path d="M424.061765,276.562716 L420.892342,278.42061 C419.570641,279.195416 419.736239,280.548674 421.262504,281.443367 L423.691365,282.867061 C425.21763,283.761755 427.526509,283.858967 428.848211,283.084161 L432.017633,281.226267 C433.339335,280.451461 433.173736,279.098204 431.647471,278.20351 L429.21861,276.779816 C427.692345,275.885123 425.383466,275.78791 424.061765,276.562716" id="Imported-Layers" stroke="#ACB0C0" fill="#F9F9F9" sketch:type="MSShapeGroup"></path>
                <path d="M436.698457,175.432705 L431.873006,178.355264 C429.860713,179.574072 430.112838,181.702812 432.436578,183.110209 L436.134523,185.349749 C438.458264,186.757146 441.973536,186.910066 443.985829,185.691258 L448.81128,182.7687 C450.823572,181.549892 450.571448,179.421152 448.247707,178.013755 L444.549762,175.774214 C442.226022,174.366817 438.71075,174.213897 436.698457,175.432705" id="Imported-Layers" stroke="#00BF5C" fill="#B7F3CD" sketch:type="MSShapeGroup"></path>
                <path d="M393.061765,260.562716 L389.892342,262.42061 C388.570641,263.195416 388.736239,264.548674 390.262504,265.443367 L392.691365,266.867061 C394.21763,267.761755 396.526509,267.858967 397.848211,267.084161 L401.017633,265.226267 C402.339335,264.451461 402.173736,263.098204 400.647471,262.20351 L398.21861,260.779816 C396.692345,259.885123 394.383466,259.78791 393.061765,260.562716" id="Imported-Layers" stroke="#ACB0C0" fill="#F9F9F9" sketch:type="MSShapeGroup"></path>
                <path d="M404.909303,241.523052 L401.739881,243.380946 C400.418179,244.155752 400.583778,245.509009 402.110043,246.403703 L404.538904,247.827397 C406.065169,248.722091 408.374048,248.819303 409.695749,248.044497 L412.865172,246.186603 C414.186873,245.411797 414.021275,244.05854 412.49501,243.163846 L410.066149,241.740152 C408.539884,240.845459 406.231005,240.748246 404.909303,241.523052" id="Imported-Layers" stroke="#ACB0C0" fill="#F9F9F9" sketch:type="MSShapeGroup"></path>
                <path d="M447.214226,264.523052 L444.044803,266.380946 C442.723102,267.155752 442.888701,268.509009 444.414965,269.403703 L446.843826,270.827397 C448.370091,271.722091 450.67897,271.819303 452.000672,271.044497 L455.170094,269.186603 C456.491796,268.411797 456.326197,267.05854 454.799932,266.163846 L452.371071,264.740152 C450.844807,263.845459 448.535927,263.748246 447.214226,264.523052" id="Imported-Layers" stroke="#ACB0C0" fill="#F9F9F9" sketch:type="MSShapeGroup"></path>
                <path d="M416.214226,248.523052 L413.044803,250.380946 C411.723102,251.155752 411.888701,252.509009 413.414965,253.403703 L415.843826,254.827397 C417.370091,255.722091 419.67897,255.819303 421.000672,255.044497 L424.170094,253.186603 C425.491796,252.411797 425.326197,251.05854 423.799932,250.163846 L421.371071,248.740152 C419.844807,247.845459 417.535927,247.748246 416.214226,248.523052" id="Imported-Layers" stroke="#ACB0C0" fill="#F9F9F9" sketch:type="MSShapeGroup"></path>
                <path d="M393.409303,247.542884 L390.239881,249.400778 C388.918179,250.175584 389.083778,251.528842 390.610043,252.423535 L393.038904,253.847229 C394.565169,254.741923 396.874048,254.839135 398.195749,254.064329 L401.365172,252.206435 C402.686873,251.431629 402.521275,250.078372 400.99501,249.183678 L398.566149,247.759984 C397.039884,246.865291 394.731005,246.768078 393.409303,247.542884" id="Imported-Layers-2" stroke="#ACB0C0" fill="#F9F9F9" sketch:type="MSShapeGroup"></path>
                <path d="M435.714226,270.542884 L432.544803,272.400778 C431.223102,273.175584 431.388701,274.528842 432.914965,275.423535 L435.343826,276.847229 C436.870091,277.741923 439.17897,277.839135 440.500672,277.064329 L443.670094,275.206435 C444.991796,274.431629 444.826197,273.078372 443.299932,272.183678 L440.871071,270.759984 C439.344807,269.865291 437.035927,269.768078 435.714226,270.542884" id="Imported-Layers-2" stroke="#ACB0C0" fill="#F9F9F9" sketch:type="MSShapeGroup"></path>
                <path d="M404.714226,254.542884 L401.544803,256.400778 C400.223102,257.175584 400.388701,258.528842 401.914965,259.423535 L404.343826,260.847229 C405.870091,261.741923 408.17897,261.839135 409.500672,261.064329 L412.670094,259.206435 C413.991796,258.431629 413.826197,257.078372 412.299932,256.183678 L409.871071,254.759984 C408.344807,253.865291 406.035927,253.768078 404.714226,254.542884" id="Imported-Layers-2" stroke="#ACB0C0" fill="#F9F9F9" sketch:type="MSShapeGroup"></path>
                <path d="M402.698457,198.822787 L397.873006,201.745346 C395.860713,202.964154 396.112838,205.092894 398.436578,206.500291 L402.134523,208.739831 C404.458264,210.147228 407.973536,210.300148 409.985829,209.08134 L414.81128,206.158781 C416.823572,204.939973 416.571448,202.811234 414.247707,201.403837 L410.549762,199.164296 C408.226022,197.756899 404.71075,197.603979 402.698457,198.822787" id="Imported-Layers-2" stroke="#00BF5C" fill="#B7F3CD" sketch:type="MSShapeGroup"></path>
                <path d="M403.927277,147.561787 L399.101826,150.484346 C397.089534,151.703154 397.341658,153.831894 399.665398,155.239291 L403.363343,157.478831 C405.687084,158.886228 409.202356,159.039148 411.214649,157.82034 L416.0401,154.897782 C418.052393,153.678974 417.800268,151.550234 415.476528,150.142837 L411.778583,147.903296 C409.454842,146.495899 405.93957,146.342979 403.927277,147.561787" id="Imported-Layers-2" stroke="#00BF5C" fill="#B7F3CD" sketch:type="MSShapeGroup"></path>
                <path d="M66.0239406,268.253134 L72.2155543,264.689134 L57.4693724,256.108288 C59.1949179,254.021672 59.1974406,251.407903 55.512577,249.246826 C52.3843952,247.413211 48.3757815,247.582442 45.8690315,247.927672 C44.3402588,248.137519 43.2268952,248.496288 43.2268952,248.496288 L48.5876906,251.638903 L47.8678724,254.028442 L43.802077,254.546288 L38.3100997,251.325826 C38.3100997,251.325826 35.2340543,255.744442 39.8758724,258.465672 C43.1587815,260.389826 47.5844861,260.446519 51.1448952,259.595288 L66.0239406,268.253134 L66.0239406,268.253134 Z" id="Fill-1" stroke="#F59D2C" fill="#FFC95A" sketch:type="MSShapeGroup"></path>
                <g id="Imported-Layers" transform="translate(37.149645, 248.833749)"></g>
            </g>
        </g>
    </g>
</svg>