<?xml version="1.0" encoding="UTF-8" standalone="no"?>
<svg width="87px" height="86px" viewBox="0 0 87 86" version="1.1" xmlns="http://www.w3.org/2000/svg" xmlns:xlink="http://www.w3.org/1999/xlink" xmlns:sketch="http://www.bohemiancoding.com/sketch/ns">
    <!-- Generator: Sketch 3.1.1 (8761) - http://www.bohemiancoding.com/sketch -->
    <title>Oval 130 + Imported Layers 4</title>
    <desc>Created with Sketch.</desc>
    <defs></defs>
    <g id="Page-2-Copy-Copy-Copy" stroke="none" stroke-width="1" fill="none" fill-rule="evenodd" sketch:type="MSPage">
        <g id="Servces.png" sketch:type="MSArtboardGroup" transform="translate(-814.000000, -1337.000000)" stroke="#FFFFFF">
            <g id="Oval-130-+-Imported-Layers-4" sketch:type="MSLayerGroup" transform="translate(816.000000, 1339.000000)">
                <path d="M41.5,82.2871094 C64.3022409,82.2871094 82.7871094,63.8022409 82.7871094,41 C82.7871094,18.1977591 64.3022409,-0.287109375 41.5,-0.287109375 C18.6977591,-0.287109375 0.212890625,18.1977591 0.212890625,41 C0.212890625,63.8022409 18.6977591,82.2871094 41.5,82.2871094 Z" id="Oval-130" stroke-width="3" fill-opacity="0.0478940217" fill="#000000" sketch:type="MSShapeGroup"></path>
                <path d="M53.0899764,55.7737894 L44.5072766,32.1068211 L34.3596686,57.4403814 C34.2195544,57.8487065 33.1544297,60.6287978 30.1577861,60.6287978 L27.0727035,60.6287978 L27.0727035,56.5447059 L28.9479233,56.5447059 C29.607381,56.5447059 29.8341095,55.744281 29.8341095,55.744281 L42.011728,25.8892159 C42.011728,25.8892159 27.9279049,25.8892161 25.6055159,25.889216 C23.283127,25.8892159 22.485237,28.9152943 22.485237,28.9152943 L21.4301045,28.9152943 C21.4301045,28.9152943 21.377331,24.8951501 21.4301045,23.6752477 C21.5619961,20.6264706 23.6819406,21.4268114 26.0132347,21.2860792 L43.3979323,21.2843137 C45.7060882,21.2843137 46.7946082,22.8283325 47.0612108,23.6752478 L58.1209748,54.1109805 C58.2886537,54.5949853 59.5467644,57.7288235 60.2062222,58.5182353 C60.86568,59.3076471 62.5802702,59.4392157 62.5802702,59.4392157 L62.5802702,60.754902 C62.5802702,60.754902 62.9759449,60.7549007 59.4148729,60.7549007 C54.4029937,60.754902 53.0899764,55.7737894 53.0899764,55.7737894 Z" id="Imported-Layers-3" stroke-width="2" sketch:type="MSShapeGroup"></path>
            </g>
        </g>
    </g>
</svg>