<?xml version="1.0" encoding="UTF-8" standalone="no"?>
<svg width="87px" height="87px" viewBox="0 0 87 87" version="1.1" xmlns="http://www.w3.org/2000/svg" xmlns:xlink="http://www.w3.org/1999/xlink" xmlns:sketch="http://www.bohemiancoding.com/sketch/ns">
    <!-- Generator: Sketch 3.1.1 (8761) - http://www.bohemiancoding.com/sketch -->
    <title>Oval 130 + Group</title>
    <desc>Created with Sketch.</desc>
    <defs>
        <linearGradient x1="50%" y1="0%" x2="50%" y2="100%" id="linearGradient-1">
            <stop stop-color="#E8E8E8" offset="0%"></stop>
            <stop stop-color="#FFFFFF" offset="100%"></stop>
        </linearGradient>
    </defs>
    <g id="Page-2-Copy-Copy-Copy" stroke="none" stroke-width="1" fill="none" fill-rule="evenodd" sketch:type="MSPage">
        <g id="Home.png" sketch:type="MSArtboardGroup" transform="translate(-697.000000, -577.000000)">
            <g id="Services" sketch:type="MSLayerGroup" transform="translate(570.000000, 537.250000)">
                <g id="Oval-130-+-Group" transform="translate(129.000000, 42.000000)" sketch:type="MSShapeGroup">
                    <path d="M41.5,82.5742188 C64.3022409,82.5742188 82.7871094,64.0893502 82.7871094,41.2871094 C82.7871094,18.4848685 64.3022409,0 41.5,0 C18.6977591,0 0.212890625,18.4848685 0.212890625,41.2871094 C0.212890625,64.0893502 18.6977591,82.5742188 41.5,82.5742188 Z" id="Oval-130" stroke="#FFFFFF" stroke-width="3" fill-opacity="0.0478940217" fill="#000000"></path>
                    <g id="Group" transform="translate(26.000000, 12.000000)">
                        <path d="M5.16129032,0 C2.22556885,0 0,2.08724011 0,5 L0,53 C0,55.9127599 2.22556885,58 5.16129032,58 L26.8387097,58 C29.7735549,58 32,55.9127599 32,53 L32,5 C32,2.08724011 29.7709263,0 26.8387097,0 L5.16129032,0 Z" id="Shape-3" stroke="#FFFFFF" stroke-width="2"></path>
                        <path d="M28,46 L4,46 L4,9 L28,9 L28,46 L28,46 Z" id="Path" stroke="#FFFFFF" stroke-width="2"></path>
                        <path d="M19.5244654,4 C20.3393806,4 20.9999998,4.65737679 20.9999998,5.48102926 L20.9999998,5.48102926 C20.9999998,6.29897914 20.3438719,6.96205852 19.5244654,6.96205852 L12.4755344,6.96205854 C11.6606192,6.96205854 11,6.30468175 11,5.48102927 L11,5.48102927 C11,4.66307939 11.6561279,4 12.4755344,4 L19.5244654,4 Z" id="Path" fill="url(#linearGradient-1)"></path>
                        <path d="M13,50.9978214 C13,49.3405955 14.3419512,48 16.0014634,48 C17.6565854,48 19,49.3420479 19,50.9978214 C19,52.6535948 17.6565854,54 16.0014634,54 C14.3419512,54 13,52.6521423 13,50.9978214 Z" id="Path" stroke="#FFFFFF" stroke-width="2"></path>
                    </g>
                </g>
            </g>
        </g>
    </g>
</svg>