<?xml version="1.0" encoding="UTF-8" standalone="no"?>
<svg width="87px" height="87px" viewBox="0 0 87 87" version="1.1" xmlns="http://www.w3.org/2000/svg" xmlns:xlink="http://www.w3.org/1999/xlink" xmlns:sketch="http://www.bohemiancoding.com/sketch/ns">
    <!-- Generator: Sketch 3.1.1 (8761) - http://www.bohemiancoding.com/sketch -->
    <title>Oval 130 + Shape + Shape</title>
    <desc>Created with Sketch.</desc>
    <defs></defs>
    <g id="Page-2-Copy-Copy-Copy" stroke="none" stroke-width="1" fill="none" fill-rule="evenodd" sketch:type="MSPage">
        <g id="Home.png" sketch:type="MSArtboardGroup" transform="translate(-1368.000000, -577.000000)" stroke="#FFFFFF">
            <g id="Services" sketch:type="MSLayerGroup" transform="translate(570.000000, 537.250000)">
                <g id="Oval-130-+-Shape-+-Shape" transform="translate(800.000000, 42.000000)" sketch:type="MSShapeGroup">
                    <path d="M41.5,82.5742188 C64.3022409,82.5742188 82.7871094,64.0893502 82.7871094,41.2871094 C82.7871094,18.4848685 64.3022409,0 41.5,0 C18.6977591,0 0.212890625,18.4848685 0.212890625,41.2871094 C0.212890625,64.0893502 18.6977591,82.5742188 41.5,82.5742188 Z" id="Oval-130" stroke-width="3" fill-opacity="0.0478940217" fill="#000000"></path>
                    <path d="M25.4009787,34.0145324 C21.1197412,34.4138578 23.2314289,41.4676883 26.130716,45.1895781 C27.2890825,46.6760174 26.9907835,46.6214135 25.5560268,45.476938 C22.893806,43.3534531 19.7675645,41.2933971 19.2428728,38.5108047 C18.012038,31.9826056 19.6119546,26.8597675 15.3222906,26.8586643 C14.8683817,30.8315114 14.4537966,39.658038 15.7014843,43.3396643 C16.9165895,46.9220107 19.0192889,48.7090473 20.4562927,50.0553918 C24.1077877,53.4761328 29.9827624,54.7430535 30.466445,62.0665941 L38.8351099,62.0665941 C39.0008316,58.0766489 39.1395884,52.824747 37.1790164,49.6968814 C35.0819348,46.0830963 27.0132542,41.9089319 25.4009787,34.0145324 Z" id="Shape" stroke-width="2"></path>
                    <path d="M46.5448798,50.2486428 C48.6413997,46.6343062 56.710642,42.4606933 58.3229175,34.5657422 C62.604155,34.9650677 60.4924674,42.0188981 57.5931803,45.7407879 C56.4348137,47.2272272 56.7331128,47.1726233 58.1673077,46.0281478 C60.8295284,43.9046629 63.9563317,41.8446069 64.4804617,39.0620145 C65.7112964,32.534367 64.1113798,27.4115288 68.4010439,27.4104257 C68.8549528,31.3832728 69.2700997,40.2097994 68.0212884,43.8914256 C66.806745,47.4737721 64.7034838,49.2608087 63.2664801,50.6071532 C59.6144232,54.0278942 53.7400104,55.2948149 53.2563277,62.6183555 L44.8876628,62.6183555 C44.7230647,58.6284103 44.5843078,53.3765083 46.5448798,50.2486428 L46.5448798,50.2486428 Z" id="Shape" stroke-width="2"></path>
                </g>
            </g>
        </g>
    </g>
</svg>